<?xml version="1.0" standalone="no"?>
<!DOCTYPE svg PUBLIC "-//W3C//DTD SVG 20010904//EN"
 "http://www.w3.org/TR/2001/REC-SVG-20010904/DTD/svg10.dtd">
<svg version="1.0" xmlns="http://www.w3.org/2000/svg"
 width="300.000000pt" height="300.000000pt" viewBox="0 0 300.000000 300.000000"
 preserveAspectRatio="xMidYMid meet">
<metadata>
Created by potrace 1.10, written by Peter Selinger 2001-2011
</metadata>
<g transform="translate(0.000000,300.000000) scale(0.100000,-0.100000)"
fill="#000000" stroke="none">
<path d="M1355 2989 c-487 -31 -967 -358 -1194 -814 -61 -123 -115 -280 -136
-400 -22 -123 -22 -428 0 -550 93 -524 490 -978 1004 -1149 160 -53 257 -67
471 -67 214 0 311 14 471 67 449 149 803 504 953 954 53 159 67 257 67 470 0
214 -14 311 -67 471 -149 449 -503 803 -954 953 -180 60 -370 80 -615 65z
m320 -40 c449 -55 852 -318 1081 -705 263 -445 270 -1017 17 -1459 -445 -780
-1466 -984 -2170 -435 -579 451 -732 1262 -358 1895 292 494 859 774 1430 704z"/>
<path d="M1285 2894 c-142 -22 -260 -60 -402 -129 -292 -143 -505 -356 -649
-650 -98 -201 -144 -397 -144 -615 0 -218 46 -414 144 -615 144 -294 357 -507
649 -650 73 -35 173 -76 222 -90 829 -233 1662 302 1790 1150 115 766 -418
1484 -1190 1600 -122 18 -299 18 -420 -1z m500 -32 c540 -117 951 -526 1076
-1071 13 -56 22 -140 25 -241 10 -257 -29 -438 -141 -665 -76 -156 -160 -269
-288 -392 -192 -183 -431 -307 -695 -360 -123 -25 -405 -25 -522 0 -289 62
-519 185 -721 386 -468 468 -542 1194 -178 1745 217 328 554 546 949 611 118
20 375 13 495 -13z"/>
<path d="M1336 2821 c-4 -5 -1 -11 5 -13 7 -2 12 -38 13 -93 l1 -90 78 3 c73
3 79 5 88 29 12 32 5 40 -16 20 -15 -15 -81 -34 -90 -25 -2 2 -7 23 -11 47 -7
42 -6 44 17 39 13 -3 32 -9 42 -13 14 -6 17 -2 17 24 0 29 -14 43 -22 22 -1
-5 -15 -13 -30 -16 -26 -7 -28 -5 -28 24 0 30 2 31 43 31 24 0 48 -5 55 -12
15 -15 24 -6 16 16 -5 13 -21 16 -89 16 -46 0 -86 -4 -89 -9z"/>
<path d="M1630 2821 c0 -6 5 -11 10 -11 6 0 10 -4 10 -8 0 -14 -93 -152 -102
-152 -4 0 -8 -4 -8 -10 0 -5 16 -10 36 -10 30 0 34 3 25 14 -21 26 -2 46 44
46 36 0 44 -4 48 -22 4 -12 2 -27 -4 -34 -7 -8 2 -14 33 -22 23 -6 44 -9 46
-7 2 2 -3 14 -11 27 -8 12 -27 60 -42 106 -16 48 -32 82 -40 82 -7 0 -20 3
-29 6 -9 3 -16 1 -16 -5z m45 -92 c6 -24 4 -25 -23 -21 -30 4 -30 4 -14 33 18
31 27 28 37 -12z"/>
<path d="M1208 2803 c-31 -5 -34 -11 -14 -27 8 -6 17 -21 20 -33 6 -19 2 -23
-31 -32 -64 -18 -70 -13 -65 51 1 15 -3 15 -31 6 -38 -13 -58 -28 -36 -28 19
0 63 -132 54 -160 -6 -18 -4 -19 17 -11 13 5 32 12 42 15 17 6 17 8 4 19 -9 6
-20 26 -26 44 -10 31 -10 31 35 42 25 7 47 10 50 7 2 -2 5 -24 6 -49 1 -24 6
-43 12 -42 5 2 23 6 39 10 24 5 26 8 13 18 -21 17 -49 147 -35 164 11 14 3 15
-54 6z"/>
<path d="M1860 2773 c-23 -8 -40 -34 -40 -60 0 -17 14 -32 55 -58 54 -35 69
-60 40 -71 -25 -10 -69 11 -91 44 -23 33 -34 32 -34 -2 1 -24 73 -66 114 -66
31 0 68 38 64 65 -2 11 -27 37 -55 59 -29 21 -53 44 -53 51 0 37 82 15 95 -25
9 -28 25 -25 25 5 0 21 -9 30 -42 45 -45 20 -53 22 -78 13z"/>
<path d="M905 2693 c-38 -19 -72 -37 -74 -39 -1 -1 1 -15 7 -31 l10 -28 10 25
c5 14 17 32 26 39 14 12 20 4 50 -59 19 -39 32 -78 29 -86 -4 -12 1 -12 31 2
34 17 48 34 26 34 -16 0 -81 138 -69 145 6 4 27 4 47 0 l37 -7 -19 21 c-25 27
-28 27 -111 -16z"/>
<path d="M2019 2694 l-24 -26 37 7 c20 4 41 4 47 0 15 -9 -54 -142 -76 -147
-13 -3 -6 -10 26 -27 36 -19 43 -20 38 -6 -4 9 8 46 29 86 34 69 36 70 55 53
10 -9 19 -25 19 -36 0 -27 17 -22 24 8 4 15 6 27 4 29 -2 1 -37 20 -79 43
l-76 42 -24 -26z"/>
<path d="M687 2559 c-57 -43 -69 -59 -43 -59 20 0 108 -110 102 -127 -7 -18 1
-16 35 8 l29 20 -31 26 c-35 30 -27 49 15 33 44 -16 91 -12 111 10 21 23 13
39 -9 21 -11 -10 -23 -10 -54 0 -39 11 -39 12 -26 37 11 22 11 30 0 47 -24 36
-66 31 -129 -16z m87 -5 c22 -21 20 -37 -7 -62 -22 -21 -24 -21 -38 -5 -42 51
-42 51 -12 67 36 19 38 19 57 0z"/>
<path d="M2240 2584 c0 -20 -80 -132 -97 -136 -7 -2 17 -27 53 -56 57 -46 66
-51 84 -40 27 17 25 28 -6 28 -14 0 -39 9 -55 21 l-29 21 22 31 c12 18 23 34
25 36 6 8 43 -32 43 -47 0 -12 4 -12 20 3 25 22 26 35 2 35 -10 0 -26 6 -35
13 -16 11 -16 14 -1 35 l15 22 30 -20 c16 -12 32 -32 35 -46 7 -28 19 -31 28
-8 8 21 4 27 -64 79 -65 50 -70 52 -70 29z"/>
<path d="M1365 2570 c-304 -39 -594 -220 -763 -478 -69 -105 -114 -207 -149
-341 -23 -83 -26 -116 -26 -251 1 -133 4 -168 26 -251 53 -204 147 -370 286
-510 364 -364 933 -419 1363 -132 158 105 316 296 388 469 63 152 82 251 83
424 0 135 -3 168 -26 251 -35 135 -78 232 -150 341 -189 288 -505 467 -849
482 -62 3 -144 1 -183 -4z m263 -20 c422 -53 769 -349 887 -757 87 -298 37
-616 -136 -883 -55 -84 -205 -234 -289 -289 -366 -237 -817 -237 -1180 1 -85
55 -235 206 -289 288 -174 269 -223 584 -136 885 143 496 632 819 1143 755z"/>
<path d="M1355 2499 c-92 -13 -221 -56 -319 -107 -365 -187 -581 -585 -538
-990 49 -476 418 -848 895 -903 361 -42 732 129 938 433 345 508 165 1194
-386 1470 -178 90 -393 125 -590 97z m220 -61 l-7 -33 22 28 c14 18 31 27 49
27 37 0 44 -10 24 -32 -24 -26 -11 -32 20 -8 26 21 63 26 85 11 10 -6 3 -17
-28 -41 -22 -18 -39 -34 -36 -37 2 -2 31 9 65 26 l60 31 48 -19 48 -19 -30
-12 c-16 -7 -46 -18 -65 -25 -127 -47 -119 -52 35 -19 l118 25 56 -38 56 -38
-110 -6 c-60 -4 -135 -7 -165 -9 -105 -3 -12 -18 161 -25 l167 -7 58 -60 c36
-37 51 -58 39 -54 -11 3 -114 22 -230 41 -115 20 -219 38 -230 42 -44 12 2
-15 50 -30 28 -9 150 -47 272 -86 l222 -71 31 -56 c18 -30 30 -57 28 -60 -3
-2 -128 46 -279 107 -151 61 -285 115 -299 120 -24 9 -24 8 -5 -7 11 -8 114
-70 229 -136 l208 -121 -6 -45 c-3 -25 -8 -47 -10 -49 -2 -2 -102 64 -222 146
-120 82 -221 147 -224 144 -3 -2 5 -12 17 -21 12 -9 96 -87 187 -172 155 -145
166 -157 165 -190 0 -19 -4 -43 -8 -53 -6 -18 -7 -18 -23 0 -8 10 -18 31 -22
46 -5 20 -18 33 -46 46 -26 11 -87 68 -172 157 -125 131 -171 173 -138 126
151 -214 199 -287 189 -291 -6 -2 -19 -17 -29 -33 l-18 -30 -87 146 c-49 81
-89 145 -91 143 -3 -3 17 -57 101 -270 l15 -37 -43 6 c-23 4 -45 10 -50 13 -4
4 -20 50 -34 102 -31 106 -38 101 -25 -16 5 -44 8 -82 6 -84 -2 -2 -15 0 -30
3 l-27 7 8 121 c5 91 12 129 26 155 13 23 19 51 18 85 -2 37 2 54 14 63 10 7
17 17 17 23 0 5 11 13 25 16 14 4 28 13 32 21 7 19 -14 45 -36 45 -13 0 -16 8
-13 39 4 40 -14 87 -42 110 -14 12 -16 10 -17 -10 -1 -21 -3 -20 -16 10 -8 19
-13 45 -10 58 6 30 -7 29 -30 -3 l-19 -26 -24 34 c-23 34 -77 78 -96 78 -5 0
6 -12 24 -26 42 -33 88 -112 74 -126 -7 -7 -16 0 -28 21 -10 17 -21 31 -24 31
-10 0 -39 -137 -33 -161 l6 -24 -22 20 c-25 21 -25 41 -1 146 12 48 11 59 -2
87 -19 38 -15 40 70 41 l64 1 -7 -32z m-147 -3 c7 -14 12 -37 12 -51 l0 -26
-31 26 c-43 36 -63 35 -42 -2 17 -30 11 -102 -9 -102 -6 0 -8 12 -4 31 8 44
-13 33 -42 -22 -16 -30 -22 -56 -20 -81 3 -30 0 -38 -13 -38 -9 0 -22 -7 -30
-16 -16 -20 -1 -48 30 -52 11 -2 21 -8 21 -14 0 -6 7 -16 17 -23 12 -9 16 -27
16 -65 -1 -34 6 -65 17 -86 15 -26 20 -59 22 -156 3 -121 3 -123 -20 -126 -22
-3 -22 -2 -17 85 l5 88 -24 -88 c-13 -49 -26 -90 -28 -91 -1 -2 -22 -6 -45
-10 l-42 -6 49 141 c28 77 50 146 50 152 0 6 -36 -51 -81 -128 -87 -152 -99
-169 -99 -142 0 10 -11 29 -24 42 l-25 25 100 146 c55 80 98 148 96 150 -2 2
-64 -62 -138 -141 -77 -84 -142 -145 -152 -145 -24 0 -77 -53 -77 -77 0 -10
-7 -27 -15 -37 -14 -18 -15 -18 -25 8 -26 71 -34 59 174 256 175 166 232 228
176 189 -10 -8 -119 -85 -242 -172 l-223 -158 -11 28 c-28 70 -38 59 169 185
106 64 218 131 249 150 74 43 74 55 1 22 -32 -14 -161 -68 -288 -121 -126 -53
-236 -100 -243 -106 -25 -20 -20 0 18 68 l39 70 98 32 c353 114 454 148 446
150 -10 4 -439 -82 -468 -93 -12 -5 -1 13 30 49 27 31 53 57 58 57 23 0 355
42 377 48 14 3 -47 11 -135 17 l-160 10 59 34 58 34 86 -12 c47 -7 100 -15
117 -18 41 -8 22 9 -35 32 -105 41 -101 35 -41 56 59 21 48 23 128 -28 30 -20
26 -6 -10 34 -22 24 -18 28 33 36 71 12 97 8 108 -18z m-8 -130 c-7 -21 -10
-57 -7 -81 5 -45 -3 -53 -32 -35 -18 12 -17 56 4 105 10 23 14 49 10 65 l-6
26 22 -21 c19 -20 20 -25 9 -59z m206 -16 c9 -20 14 -51 12 -70 -2 -29 -7 -34
-30 -37 -25 -3 -28 0 -28 28 0 17 -4 40 -10 50 -7 13 -6 28 4 52 18 43 30 54
34 31 2 -10 10 -34 18 -54z m-68 -74 c-3 -26 -7 -30 -33 -30 -29 0 -30 1 -30
50 1 28 4 59 9 70 7 18 10 16 32 -20 15 -24 23 -52 22 -70z m-213 34 c1 -24 6
-52 10 -61 5 -12 3 -18 -7 -18 -36 0 -50 54 -26 105 14 32 19 27 23 -26z m345
-26 c0 -21 -6 -36 -18 -42 -18 -9 -18 -4 -12 109 1 28 29 -34 30 -67z m43 -72
c4 -1 7 -8 7 -16 0 -13 -33 -15 -240 -15 -203 0 -240 2 -240 14 0 20 52 24
280 20 102 -1 188 -3 193 -3z m-48 -61 c-3 -5 -19 -10 -36 -10 -25 0 -29 -4
-29 -29 0 -16 6 -31 15 -35 8 -3 15 -10 15 -16 0 -6 -54 -10 -150 -10 -82 0
-150 4 -150 9 0 5 7 14 15 21 24 20 15 54 -15 58 -14 2 -29 8 -34 13 -6 5 66
9 183 9 125 0 190 -3 186 -10z m594 -13 c6 -8 8 -17 5 -20 -10 -9 -45 13 -39
24 9 13 21 11 34 -4z m-629 -112 c0 -13 -23 -15 -150 -15 -127 0 -150 2 -150
15 0 13 23 15 150 15 127 0 150 -2 150 -15z m-20 -50 c-10 -12 -38 -15 -130
-15 -92 0 -120 3 -130 15 -11 13 5 15 130 15 125 0 141 -2 130 -15z m-886 -40
c-21 -16 -44 -20 -44 -7 0 9 52 31 59 25 3 -2 -4 -10 -15 -18z m866 -54 c0
-80 -11 -181 -20 -181 -4 0 -5 50 -2 110 5 106 4 110 -16 110 -28 0 -32 -17
-32 -126 0 -63 -4 -94 -11 -94 -8 0 -10 29 -7 99 5 107 1 125 -28 119 -17 -3
-19 -13 -17 -111 2 -65 -1 -107 -7 -107 -6 0 -10 34 -10 79 0 108 -8 141 -33
141 -19 0 -20 -5 -15 -110 3 -60 2 -110 -2 -110 -9 0 -20 101 -20 181 l0 59
110 0 110 0 0 -59z m775 35 c21 -1 49 -46 36 -59 -12 -12 -94 28 -109 52 -12
20 -11 21 20 15 18 -3 42 -7 53 -8z m-1751 -2 c23 -9 20 -23 -10 -50 -35 -34
-58 -32 -49 3 11 47 27 59 59 47z m1702 -120 c18 -62 11 -115 -20 -151 l-21
-24 3 95 c2 53 0 96 -5 96 -4 0 -9 -41 -10 -91 -1 -50 -5 -95 -10 -100 -5 -5
-17 15 -28 46 -18 53 -18 59 -2 140 9 47 14 93 11 102 -3 10 11 0 31 -22 21
-23 42 -60 51 -91z m-1615 -7 c31 -94 35 -142 15 -197 l-13 -35 -16 75 c-9 41
-18 86 -21 100 -2 14 -3 -6 -1 -45 1 -38 6 -81 11 -95 7 -25 7 -25 -14 -6 -33
29 -45 81 -39 160 6 78 38 185 45 151 2 -11 17 -59 33 -108z m721 16 c5 -92 3
-112 -6 -102 -10 10 -18 199 -8 199 5 0 12 -42 14 -97z m68 -3 c0 -60 -4 -100
-10 -100 -6 0 -10 40 -10 100 0 60 4 100 10 100 6 0 10 -40 10 -100z m64 3
c-7 -98 -9 -111 -19 -101 -9 9 7 198 17 198 5 0 6 -40 2 -97z m816 16 c28 -17
52 -40 55 -52 13 -57 22 -117 16 -117 -17 1 -41 30 -41 49 0 22 -16 29 -22 10
-2 -5 -11 -7 -21 -4 -12 5 -17 18 -17 47 0 21 -7 52 -15 68 -9 17 -13 30 -10
30 2 0 27 -14 55 -31z m-1760 -30 c-6 -18 -10 -48 -10 -65 0 -24 -9 -38 -41
-63 -22 -18 -42 -31 -43 -30 -2 2 1 36 6 75 10 67 12 71 51 96 23 15 43 26 44
24 1 -1 -2 -18 -7 -37z m205 -99 c33 -98 32 -134 -6 -190 -29 -42 -30 -43 -25
-15 14 82 17 144 7 150 -7 4 -11 -9 -12 -37 0 -24 -4 -65 -8 -93 l-7 -50 -18
37 c-12 26 -16 50 -13 75 6 43 50 203 54 199 2 -1 14 -36 28 -76z m224 55 c44
-22 54 -59 37 -135 -27 -120 -39 -259 -33 -393 6 -158 0 -178 -51 -170 -31 5
-35 4 -28 -12 6 -16 2 -17 -30 -12 -72 12 -106 75 -64 117 36 36 120 21 120
-21 0 -16 -4 -19 -17 -13 -10 4 -35 9 -55 12 -42 5 -60 -16 -38 -43 15 -18 45
-19 105 -3 37 10 45 16 45 36 0 40 -42 72 -95 72 -79 0 -125 -36 -125 -97 0
-23 19 -73 20 -51 0 4 15 -1 33 -12 18 -12 50 -20 74 -20 32 0 45 -5 53 -20
10 -19 8 -20 -41 -20 -63 0 -116 24 -140 64 -26 42 -24 69 12 167 46 126 68
239 75 384 4 72 11 138 16 148 18 36 80 47 127 22z m997 -10 c19 -12 22 -28
28 -127 11 -177 32 -300 73 -419 35 -102 37 -112 23 -136 -29 -51 -63 -66
-156 -71 -79 -4 -85 -3 -82 14 3 21 -1 21 -49 2 -26 -10 -48 -10 -115 1 -125
21 -384 25 -503 8 -85 -12 -104 -12 -125 -1 -14 8 -38 18 -53 24 -18 6 -26 14
-21 22 4 7 7 87 5 178 -2 146 15 339 34 400 4 12 39 21 143 35 167 24 302 24
488 0 l141 -18 14 -66 c10 -45 14 -137 14 -293 0 -222 1 -228 22 -250 17 -17
37 -23 86 -26 57 -4 66 -1 95 23 18 15 32 33 32 41 0 8 5 14 10 14 18 0 11 38
-12 65 -43 49 -149 51 -183 2 -21 -30 -20 -72 3 -75 9 -1 34 -4 54 -8 57 -9
90 2 86 29 -4 28 -49 35 -83 13 -32 -21 -33 -20 -27 9 6 32 36 49 75 41 36 -7
56 -31 57 -69 0 -32 -48 -67 -93 -67 -41 0 -94 25 -102 48 -3 12 -1 68 5 125
12 113 2 273 -25 402 -19 91 -19 92 10 120 28 29 97 34 131 10z m176 -83 c35
-76 39 -157 12 -218 l-18 -39 -6 95 c-3 52 -12 104 -18 115 -13 21 -13 11 4
-120 l5 -40 -30 52 c-35 58 -36 70 -20 179 11 71 13 76 27 58 8 -10 28 -48 44
-82z m164 -106 c-13 -31 -104 -111 -115 -101 -2 3 14 36 37 75 22 38 36 70 31
70 -5 0 -22 -24 -39 -52 l-30 -53 0 47 c0 48 16 69 100 136 l25 20 3 -53 c2
-31 -3 -68 -12 -89z m-1834 24 c4 -44 -6 -80 -22 -80 -11 0 -14 102 -3 113 14
15 21 5 25 -33z m136 -17 c40 -30 72 -93 72 -143 l0 -35 -27 45 c-31 54 -93
133 -99 127 -3 -2 21 -42 53 -88 l58 -84 -40 31 c-22 17 -50 36 -62 43 -29 15
-52 59 -60 117 l-6 45 39 -16 c21 -8 53 -27 72 -42z m1772 7 c0 -51 -4 -57
-29 -41 -12 8 -13 16 -2 50 16 56 31 52 31 -9z m-289 -97 c14 -29 22 -64 22
-97 -1 -54 -29 -140 -44 -130 -5 3 -10 47 -11 97 -1 72 -3 80 -6 37 l-5 -55
-12 77 c-6 42 -9 93 -7 113 4 34 5 35 23 19 10 -9 28 -37 40 -61z m-1304 -76
c-9 -45 -23 -102 -32 -127 l-15 -45 5 68 c3 37 8 82 10 100 4 29 3 28 -9 -8
-8 -22 -15 -67 -16 -100 -2 -59 -2 -60 -15 -30 -33 71 -14 170 49 260 l20 29
10 -32 c6 -23 4 -57 -7 -115z m1514 55 c-11 -34 -30 -81 -44 -105 -21 -35 -34
-45 -76 -59 -59 -19 -58 -17 12 65 27 31 45 57 39 57 -10 0 -64 -56 -99 -105
l-21 -30 10 45 c18 78 25 88 96 129 38 22 75 47 82 56 21 25 21 13 1 -53z m64
-46 c-4 -36 -10 -66 -14 -65 -3 0 -16 13 -29 29 -17 22 -21 34 -14 47 5 10 13
36 16 57 l7 39 21 -20 c18 -18 19 -28 13 -87z m-1863 -32 c4 -6 -1 -19 -11
-28 -18 -17 -19 -15 -30 34 -14 67 -14 70 7 93 16 19 17 18 22 -34 3 -30 8
-59 12 -65z m99 38 c52 -35 73 -63 82 -110 7 -32 6 -32 -47 25 -72 77 -80 64
-10 -15 31 -34 51 -62 44 -62 -21 0 -85 31 -107 52 -27 26 -63 117 -63 160 l0
32 28 -26 c15 -14 48 -39 73 -56z m-72 -119 c5 -10 11 -40 12 -68 3 -38 1 -50
-10 -50 -16 0 -54 102 -46 122 7 19 33 16 44 -4z m1771 3 c0 -45 -131 -176
-175 -176 -16 0 -26 37 -11 43 21 9 98 68 93 73 -2 2 -28 -12 -58 -31 -48 -33
-54 -35 -60 -18 -12 28 -11 31 17 50 23 15 167 71 187 72 4 1 7 -5 7 -13z
m-1596 -77 c27 -13 32 -25 16 -49 -8 -12 -11 -12 -27 1 -36 32 -47 31 -18 0
21 -23 30 -42 30 -67 0 -18 -5 -34 -11 -34 -15 0 -58 49 -88 102 -15 25 -33
52 -41 58 -8 7 -15 16 -15 20 0 9 117 -14 154 -31z m-65 -122 c18 -20 21 -26
8 -22 -20 8 -22 -7 -6 -34 8 -12 9 -23 2 -35 -8 -15 -16 -8 -51 48 -23 36 -42
68 -42 71 0 3 8 17 17 31 l16 26 15 -29 c8 -15 26 -41 41 -56z m1631 63 c9
-17 5 -31 -26 -81 -43 -71 -56 -71 -25 0 27 63 27 63 -6 54 l-28 -6 30 26 c36
32 41 33 55 7z m-74 -87 c-41 -81 -100 -124 -169 -123 -31 1 -31 2 -12 16 11
8 48 33 83 55 34 22 62 45 62 51 0 6 -8 4 -17 -4 -37 -31 -43 -31 -32 2 8 20
20 32 37 36 15 3 32 7 37 9 32 11 34 3 11 -42z m-1452 -68 c39 -41 41 -45 20
-45 -25 0 -88 49 -105 83 -20 37 38 11 85 -38z m252 20 c68 -20 123 -69 134
-119 l9 -39 -57 55 c-56 55 -102 87 -102 71 0 -5 12 -16 28 -25 15 -9 38 -28
52 -43 l24 -26 -44 7 c-53 8 -59 12 -99 82 -35 60 -31 63 55 37z m414 -245 c6
0 10 47 10 115 0 63 4 115 8 115 5 0 7 -39 6 -87 -2 -85 -1 -81 12 35 3 28 10
52 15 52 7 0 8 -21 5 -52 -3 -29 -8 -91 -11 -138 l-6 -85 -39 0 -38 0 -6 90
c-4 49 -9 111 -12 138 -4 28 -2 47 4 47 6 0 13 -35 17 -77 9 -109 16 -116 11
-12 -3 48 -2 90 2 94 4 4 8 -48 10 -114 1 -70 7 -121 12 -121z m-100 211 c0
-10 -3 -46 -6 -79 l-7 -61 -26 27 c-14 15 -39 37 -55 48 -24 17 -28 26 -22 47
6 26 21 32 89 36 20 1 27 -4 27 -18z m312 -3 c15 -24 8 -46 -19 -63 -16 -9
-41 -32 -58 -51 l-30 -34 -2 87 -3 86 52 -6 c28 -4 55 -12 60 -19z m197 -62
c-28 -76 -72 -126 -110 -126 l-29 0 59 72 c33 40 57 75 55 78 -3 3 -13 -4 -22
-16 -10 -11 -33 -39 -54 -63 l-36 -43 10 44 c13 54 30 73 93 109 60 35 65 27
34 -55z m-1104 4 c11 -14 30 -35 42 -48 23 -23 30 -42 15 -42 -16 0 -123 120
-117 130 8 13 29 -2 60 -40z m1280 39 c-7 -11 -33 -22 -80 -33 -29 -7 -29 -7
-11 13 10 11 32 22 50 24 17 2 35 5 39 5 5 1 5 -3 2 -9z m-310 -45 c-15 -101
-59 -174 -127 -210 -40 -21 -45 -17 -16 14 32 33 68 92 68 110 0 8 -19 -14
-42 -49 -55 -80 -69 -86 -57 -23 11 58 27 83 80 126 22 18 53 43 67 55 15 12
29 23 31 23 2 0 0 -21 -4 -46z m190 21 c-33 -27 -40 -26 -30 4 4 15 15 21 33
21 l27 -1 -30 -24z m-654 -45 c67 -60 80 -82 93 -157 7 -41 -8 -43 -24 -3 -18
44 -70 123 -77 117 -3 -3 12 -34 33 -69 50 -85 51 -86 23 -62 -13 11 -36 28
-50 36 -14 9 -35 36 -46 60 -21 44 -39 138 -27 138 3 0 37 -27 75 -60z m930
42 c-13 -25 -50 -56 -57 -49 -4 4 8 20 26 37 37 34 45 38 31 12z m-1192 -13
c13 -22 12 -22 -48 -16 -35 3 -59 1 -55 -4 3 -5 13 -9 22 -9 10 0 26 -13 35
-30 17 -29 17 -30 0 -30 -44 1 -163 75 -163 102 0 4 44 8 98 8 89 0 98 -2 111
-21z m1105 -15 c-27 -40 -102 -93 -157 -109 -56 -17 -137 -20 -137 -6 0 10
135 68 180 78 17 3 33 10 36 15 8 13 -44 2 -123 -27 -64 -23 -77 -21 -45 7 41
36 137 66 215 67 l47 1 -16 -26z m-967 -43 c35 -16 73 -61 73 -85 0 -8 -69 23
-111 50 -56 35 -48 13 9 -26 34 -23 40 -30 22 -26 -14 3 -37 6 -52 6 -28 0
-90 47 -109 81 -9 18 -5 19 58 19 45 0 82 -7 110 -19z m953 -20 c0 -12 -114
-101 -129 -101 -6 0 -11 9 -11 19 0 13 11 23 33 30 17 6 46 22 62 36 32 26 45
31 45 16z m-1187 -16 c20 -8 51 -15 68 -15 l31 0 -7 -47 c-4 -27 -8 -50 -10
-51 -2 -2 -32 15 -67 39 -35 23 -64 43 -65 43 -3 2 9 46 12 46 1 0 19 -7 38
-15z m249 -69 c68 -5 132 -30 158 -62 14 -15 10 -16 -50 -9 -36 4 -82 14 -103
21 -34 12 -38 12 -27 -1 17 -20 73 -37 130 -39 79 -2 39 -21 -45 -21 -66 0
-78 3 -115 30 -23 17 -51 44 -62 62 l-19 32 33 -4 c18 -2 63 -6 100 -9z m713
6 l39 -7 -45 -37 c-61 -50 -107 -68 -176 -68 -56 0 -95 12 -77 23 21 12 121
37 151 37 18 0 33 5 33 10 0 14 -46 12 -106 -3 l-51 -13 31 32 c29 30 36 33
96 33 36 0 83 -3 105 -7z m-347 -69 c3 -10 -15 -13 -67 -13 -66 0 -82 6 -64
24 12 12 126 2 131 -11z m-23 -44 c4 -5 4 -21 1 -34 -11 -44 -81 -44 -92 0 -9
35 2 45 46 45 21 0 42 -5 45 -11z m-105 -14 c0 -17 -26 -32 -61 -37 -37 -5
-36 15 2 34 42 21 59 22 59 3z m194 -12 c43 -22 19 -38 -33 -22 -29 9 -41 18
-41 31 0 21 19 19 74 -9z"/>
<path d="M1410 2057 c0 -45 50 -65 70 -28 20 38 13 51 -30 51 -35 0 -40 -3
-40 -23z m60 -13 c0 -10 -7 -14 -22 -12 -32 5 -35 28 -4 28 17 0 26 -5 26 -16z"/>
<path d="M1510 2064 c0 -26 20 -54 38 -54 25 0 42 20 42 47 0 20 -5 23 -40 23
-30 0 -40 -4 -40 -16z m59 -3 c18 -11 5 -31 -20 -31 -18 0 -26 20 -12 33 8 9
15 9 32 -2z"/>
<path d="M1444 1507 c22 -91 40 -102 66 -42 23 54 25 68 8 63 -6 -2 -17 -20
-24 -39 l-11 -34 -10 34 c-5 19 -15 37 -22 39 -10 3 -12 -2 -7 -21z"/>
<path d="M1557 1524 c-3 -4 0 -16 8 -27 12 -17 12 -23 -2 -44 -21 -32 -7 -44
16 -14 l19 24 6 -21 c4 -12 14 -22 22 -22 18 0 18 14 -1 30 -19 16 -19 29 2
52 14 16 15 18 0 18 -9 0 -19 -5 -22 -11 -5 -7 -13 -5 -24 5 -10 9 -20 13 -24
10z"/>
<path d="M1360 1469 l0 -50 32 3 c35 3 52 28 19 28 -17 0 -21 6 -21 35 0 24
-5 35 -15 35 -11 0 -15 -12 -15 -51z"/>
<path d="M1303 1343 c-20 -4 -23 -11 -23 -54 0 -51 4 -54 48 -43 27 8 29 24 2
24 -11 0 -20 5 -20 10 0 6 7 10 15 10 8 0 15 5 15 11 0 6 -7 9 -15 5 -8 -3
-15 -1 -15 4 0 6 9 10 20 10 11 0 20 7 20 15 0 15 -6 16 -47 8z"/>
<path d="M1390 1301 c0 -28 5 -51 10 -51 6 0 10 9 10 20 0 11 4 20 9 20 5 0
13 -9 16 -20 3 -11 13 -20 21 -20 15 0 19 12 7 24 -5 4 -8 22 -8 39 0 29 -3
32 -32 35 l-33 3 0 -50z"/>
<path d="M1500 1300 c0 -38 4 -50 15 -50 11 0 15 12 15 50 0 38 -4 50 -15 50
-11 0 -15 -12 -15 -50z"/>
<path d="M1555 1340 c-3 -5 1 -10 9 -10 12 0 16 -10 16 -40 0 -29 4 -40 15
-40 11 0 15 11 15 40 0 31 3 38 15 34 9 -4 15 0 15 10 0 12 -10 16 -39 16 -22
0 -43 -4 -46 -10z"/>
<path d="M1221 1318 c-4 -13 -10 -29 -13 -37 -2 -9 -9 -2 -17 17 -8 18 -20 32
-27 32 -8 0 -14 -2 -14 -5 0 -13 45 -95 53 -95 4 0 14 15 21 33 24 57 28 77
16 77 -6 0 -14 -10 -19 -22z"/>
<path d="M1668 1299 c-18 -42 -15 -70 5 -50 14 14 47 14 47 1 0 -5 6 -10 14
-10 12 0 12 8 -2 50 -20 62 -41 65 -64 9z"/>
<path d="M1787 1324 c-12 -13 -7 -44 8 -50 23 -9 18 -26 -6 -19 -15 5 -20 3
-17 -6 3 -8 17 -15 31 -17 38 -5 46 22 16 54 -19 20 -20 25 -7 22 9 -1 18 2
20 7 4 12 -35 19 -45 9z"/>
<path d="M1400 1130 c0 -38 4 -50 15 -50 8 0 15 8 15 18 1 16 1 16 14 0 14
-19 36 -24 36 -9 0 6 -4 13 -10 16 -6 4 -5 13 2 25 16 25 -5 50 -43 50 -28 0
-29 -2 -29 -50z"/>
<path d="M1500 1165 c0 -8 7 -15 15 -15 10 0 15 -11 15 -35 0 -22 5 -35 13
-35 9 0 12 11 9 35 -3 27 -1 35 12 35 9 0 16 7 16 15 0 11 -11 15 -40 15 -29
0 -40 -4 -40 -15z"/>
<path d="M1610 1166 c0 -28 32 -96 45 -96 10 0 45 71 45 93 0 19 -22 3 -34
-25 l-13 -33 -10 34 c-9 36 -33 55 -33 27z"/>
<path d="M1262 1133 l-9 -38 -13 33 c-6 17 -18 32 -26 32 -18 0 -17 -7 9 -57
26 -50 40 -46 62 16 18 53 18 51 1 51 -8 0 -18 -17 -24 -37z"/>
<path d="M1332 1123 c4 -66 28 -70 28 -4 0 39 -4 51 -16 51 -12 0 -14 -10 -12
-47z"/>
<path d="M1743 1163 c-18 -7 -16 -33 5 -56 16 -19 16 -20 0 -14 -26 9 -32 -10
-8 -23 16 -9 25 -8 36 1 20 17 17 34 -8 52 l-23 16 23 0 c25 1 29 16 6 25 -9
3 -16 6 -17 5 -1 0 -8 -3 -14 -6z"/>
<path d="M2430 2426 c0 -18 -108 -119 -120 -111 -18 11 -11 -6 15 -37 14 -16
25 -23 25 -16 0 20 46 62 54 50 3 -6 2 -22 -4 -37 -22 -57 -4 -115 36 -115 11
0 12 4 3 18 -7 11 -9 33 -5 54 6 35 7 36 36 25 24 -9 32 -8 49 8 32 28 25 57
-25 119 -47 56 -64 68 -64 42z m64 -78 c5 -14 6 -33 3 -42 -9 -22 -50 -20 -72
4 -17 18 -16 20 11 44 34 30 46 28 58 -6z"/>
<path d="M529 2416 c-33 -19 -63 -80 -55 -111 23 -92 149 -118 197 -42 26 41
20 101 -14 134 -30 30 -92 39 -128 19z m76 -36 c46 -28 63 -72 41 -105 -19
-29 -44 -32 -86 -10 -28 14 -60 60 -60 85 0 16 38 50 56 50 9 0 31 -9 49 -20z"/>
<path d="M387 2237 c-20 -32 -22 -41 -4 -34 8 3 35 -7 61 -22 l47 -28 -86 -18
c-76 -16 -88 -22 -101 -46 -19 -37 -18 -42 6 -29 15 8 30 5 70 -15 28 -14 59
-34 70 -45 19 -19 20 -19 30 0 14 26 13 40 -3 34 -7 -2 -37 6 -67 20 -53 25
-53 25 -24 31 70 16 150 36 163 41 9 3 -14 23 -61 53 -42 27 -78 57 -80 67 -3
15 -6 14 -21 -9z"/>
<path d="M2590 2232 c0 -16 -15 -32 -55 -57 -30 -19 -63 -35 -75 -35 -24 0
-25 -8 -4 -35 12 -14 18 -16 21 -7 6 14 92 76 99 70 2 -3 -10 -44 -26 -93 -16
-49 -28 -90 -26 -92 2 -3 37 12 76 32 40 20 81 34 91 32 22 -6 24 5 8 35 -10
18 -13 19 -23 7 -13 -17 -87 -62 -92 -56 -2 2 7 37 21 77 30 88 30 88 5 120
l-20 25 0 -23z"/>
<path d="M190 1445 c0 -8 5 -15 11 -15 6 0 9 -15 7 -37 -2 -22 2 -38 10 -41 8
-2 12 12 12 52 0 49 -2 56 -20 56 -11 0 -20 -7 -20 -15z"/>
<path d="M279 1458 c-1 -2 -3 -25 -5 -51 -3 -53 7 -64 51 -53 22 6 24 11 22
54 -2 45 -3 47 -34 50 -18 2 -34 2 -34 0z"/>
<path d="M2641 1446 c-17 -20 -7 -46 21 -54 20 -5 20 -6 3 -18 -22 -17 -14
-28 13 -20 26 9 49 63 35 85 -14 22 -57 26 -72 7z"/>
<path d="M2750 1445 c-10 -12 -10 -19 -2 -27 8 -8 9 -15 1 -25 -15 -18 6 -43
36 -43 30 0 51 25 37 43 -7 8 -7 18 -2 27 21 33 -44 56 -70 25z"/>
<path d="M2357 755 c-15 -22 -16 -25 -2 -25 8 0 15 -8 15 -17 0 -10 3 -29 7
-42 6 -23 5 -24 -32 -18 -21 3 -42 12 -46 19 -6 10 -16 5 -40 -18 l-31 -31 68
-8 c54 -5 75 -12 96 -32 15 -15 25 -30 22 -35 -12 -20 15 -5 41 22 26 27 27
30 9 30 -38 0 -62 40 -70 113 -4 37 -10 67 -13 67 -3 0 -14 -12 -24 -25z"/>
<path d="M620 760 c0 -8 -22 -36 -50 -62 -54 -52 -63 -85 -34 -126 21 -31 69
-54 98 -46 13 3 43 25 67 50 24 24 50 44 58 44 11 0 10 4 -4 20 -22 25 -35 26
-35 2 0 -27 -71 -92 -101 -92 -30 0 -59 28 -59 56 0 23 76 100 103 106 16 3
14 7 -12 32 -19 18 -31 24 -31 16z"/>
<path d="M794 586 c5 -21 -2 -38 -31 -81 -21 -30 -46 -54 -55 -55 -10 0 -18
-3 -18 -6 0 -10 33 -33 48 -34 7 0 10 5 7 10 -4 6 8 34 26 62 l33 52 19 -95
c10 -52 22 -98 26 -102 4 -4 28 26 52 68 24 41 50 75 57 75 21 0 13 16 -13 28
-22 10 -25 9 -25 -10 0 -11 -10 -37 -22 -56 l-22 -36 -7 30 c-4 16 -13 55 -19
86 -8 42 -17 61 -37 73 -26 17 -26 17 -19 -9z"/>
<path d="M2140 563 c-36 -25 -65 -49 -64 -54 1 -5 2 -16 3 -24 2 -24 16 -17
28 15 6 17 16 30 22 30 12 0 87 -108 92 -133 4 -16 7 -15 38 8 19 14 28 25 20
25 -14 0 -99 112 -99 131 0 9 38 22 56 18 23 -4 26 2 8 16 -27 20 -31 19 -104
-32z"/>
<path d="M2003 483 c-32 -16 -44 -33 -23 -33 13 0 82 -138 75 -150 -9 -15 6
-11 45 10 22 12 28 19 18 20 -22 0 -91 131 -82 155 7 18 8 18 -33 -2z"/>
<path d="M1016 457 c5 -15 -51 -148 -68 -158 -6 -4 2 -14 20 -23 39 -20 41
-20 39 2 -2 29 54 151 72 155 10 2 2 9 -23 20 -46 20 -47 20 -40 4z"/>
<path d="M1875 431 c-67 -16 -94 -47 -80 -92 9 -28 45 -39 104 -32 41 5 52 3
57 -11 3 -9 1 -23 -6 -31 -15 -18 -91 -20 -108 -3 -17 17 -25 3 -12 -22 11
-20 17 -22 59 -16 59 8 95 34 99 73 4 41 -13 52 -93 55 -76 3 -91 17 -50 44
23 15 32 16 58 6 17 -6 32 -10 35 -8 4 5 -21 46 -28 45 -3 -1 -18 -4 -35 -8z"/>
<path d="M1107 418 c4 -7 17 -58 28 -112 12 -55 25 -101 31 -103 5 -1 23 17
41 40 18 23 50 62 73 86 22 24 39 45 38 46 -2 1 -16 5 -32 9 -24 6 -28 4 -22
-10 8 -21 -65 -120 -75 -102 -15 28 -21 116 -8 124 9 5 2 12 -22 20 -45 17
-62 17 -52 2z"/>
<path d="M1613 373 c-49 -4 -69 -16 -42 -25 7 -2 12 -37 13 -91 l1 -87 38 0
c33 0 51 13 29 22 -5 2 -12 15 -16 31 -8 34 12 37 40 6 40 -45 114 -60 114
-23 0 8 -6 11 -16 7 -9 -3 -27 5 -44 22 l-29 28 24 19 c27 21 33 59 12 77 -18
14 -59 19 -124 14z m91 -45 c13 -21 -6 -43 -45 -53 -25 -6 -27 -4 -31 35 l-4
41 35 -3 c19 -2 39 -11 45 -20z"/>
<path d="M1348 361 c10 -6 12 -25 6 -82 -3 -41 -11 -80 -17 -87 -5 -7 -8 -14
-6 -16 2 -2 44 -6 93 -7 l90 -3 7 27 c8 30 -2 35 -21 12 -8 -10 -30 -15 -62
-15 l-50 0 6 31 c3 17 6 35 6 40 0 12 47 11 55 -1 12 -20 25 -9 25 20 0 17 -4
30 -10 30 -5 0 -10 -4 -10 -10 0 -5 -14 -10 -31 -10 -27 0 -30 3 -27 28 3 25
6 27 43 24 22 -2 46 -9 53 -14 16 -13 24 -6 17 14 -4 10 -25 18 -58 22 -75 9
-125 7 -109 -3z"/>
</g>
</svg>
